<svg version="1.1" id="Layer_1" xmlns:x="ns_extend;" xmlns:i="ns_ai;" xmlns:graph="ns_graphs;" xmlns="http://www.w3.org/2000/svg" xmlns:xlink="http://www.w3.org/1999/xlink" x="0px" y="0px" viewBox="0 0 40.7 33" style="enable-background:new 0 0 40.7 33;" xml:space="preserve">
 <metadata>
  <sfw xmlns="ns_sfw;">
   <slices>
   </slices>
   <sliceSourceBounds bottomLeftOrigin="true" height="33" width="40.7" x="-59" y="-2">
   </sliceSourceBounds>
  </sfw>
 </metadata>
 <path d="M40.4,28.7c1.1,2.3-1.1,5.4-4,3.7c0,0-10.9-7.2-18.9-10.3l-4.9,9.2c-0.3,0.9-2.3,2.3-4,1.1c-13.5-7.7-10.9-22.9,6-17.8
	l6.9-13.2c1.4-2.3,4.3-1.7,5.2,0L40.4,28.7z M12.1,20.1C1.2,17,6.9,24.4,9.2,25.9L12.1,20.1z M30.7,22.2L23.8,9.3L20.1,17
	C22.7,17.9,28.4,21,30.7,22.2z">
 </path>
</svg>