<?xml version="1.0" encoding="UTF-8"?>
<!DOCTYPE svg PUBLIC "-//W3C//DTD SVG 1.1//EN" "http://www.w3.org/Graphics/SVG/1.1/DTD/svg11.dtd">
<svg xmlns="http://www.w3.org/2000/svg" version="1.1" width="698px" height="698px" style="shape-rendering:geometricPrecision; text-rendering:geometricPrecision; image-rendering:optimizeQuality; fill-rule:evenodd; clip-rule:evenodd" xmlns:xlink="http://www.w3.org/1999/xlink">
<g><path style="opacity:1" fill="#f5f5f5" d="M -0.5,-0.5 C 232.167,-0.5 464.833,-0.5 697.5,-0.5C 697.5,232.167 697.5,464.833 697.5,697.5C 464.833,697.5 232.167,697.5 -0.5,697.5C -0.5,464.833 -0.5,232.167 -0.5,-0.5 Z"/></g>
<g><path style="opacity:1" fill="#afe781" d="M 199.5,92.5 C 199.5,145.833 199.5,199.167 199.5,252.5C 199.167,252.5 198.833,252.5 198.5,252.5C 163.5,252.5 128.5,252.5 93.5,252.5C 93.3334,223.831 93.5,195.165 94,166.5C 105.004,125.83 131.171,101.33 172.5,93C 181.494,92.5002 190.494,92.3336 199.5,92.5 Z"/></g>
<g><path style="opacity:1" fill="#fecf68" d="M 199.5,92.5 C 224.167,92.5 248.833,92.5 273.5,92.5C 273.168,146.003 273.501,199.336 274.5,252.5C 274.5,266.5 274.5,280.5 274.5,294.5C 250.141,306.344 225.475,317.677 200.5,328.5C 199.502,303.339 199.169,278.005 199.5,252.5C 199.5,199.167 199.5,145.833 199.5,92.5 Z"/></g>
<g><path style="opacity:1" fill="#afe780" d="M 273.5,92.5 C 315.5,92.5 357.5,92.5 399.5,92.5C 399.5,140.833 399.5,189.167 399.5,237.5C 388.406,243.047 377.073,248.047 365.5,252.5C 335.167,252.5 304.833,252.5 274.5,252.5C 273.501,199.336 273.168,146.003 273.5,92.5 Z"/></g>
<g><path style="opacity:1" fill="#fefefe" d="M 439.5,218.5 C 426.917,225.257 413.917,231.257 400.5,236.5C 400.5,188.5 400.5,140.5 400.5,92.5C 413.5,92.5 426.5,92.5 439.5,92.5C 439.5,134.5 439.5,176.5 439.5,218.5 Z"/></g>
<g><path style="opacity:1" fill="#f1efeb" d="M 604.5,429.5 C 559.5,429.5 514.5,429.5 469.5,429.5C 480.675,383.931 492.341,338.597 504.5,293.5C 537.5,293.5 570.5,293.5 603.5,293.5C 603.5,279.833 603.5,266.167 603.5,252.5C 573.833,252.5 544.167,252.5 514.5,252.5C 521.177,226.792 527.677,201.126 534,175.5C 503.339,189.915 472.505,203.915 441.5,217.5C 440.501,176.003 440.168,134.337 440.5,92.5C 467.835,92.3334 495.169,92.5 522.5,93C 558.07,98.5765 583.236,117.743 598,150.5C 600.937,157.58 602.937,164.913 604,172.5C 604.5,258.166 604.667,343.833 604.5,429.5 Z"/></g>
<g><path style="opacity:1" fill="#0293fc" d="M 514.5,252.5 C 511.319,266.222 507.986,279.888 504.5,293.5C 492.341,338.597 480.675,383.931 469.5,429.5C 463.898,448.571 458.898,467.904 454.5,487.5C 449.741,503.195 445.575,519.195 442,535.5C 441.392,537.066 440.558,538.4 439.5,539.5C 411.693,522.428 384.026,505.094 356.5,487.5C 342.149,478.806 327.816,470.14 313.5,461.5C 302.347,453.419 290.68,446.086 278.5,439.5C 361.601,352.898 445.267,266.731 529.5,181C 528.833,180.333 528.167,180.333 527.5,181C 435.5,259.333 343.5,337.667 251.5,416C 249.922,417.094 248.255,417.928 246.5,418.5C 231.167,409.167 215.833,399.833 200.5,390.5C 200.5,389.833 200.167,389.5 199.5,389.5C 181.536,378.181 163.536,366.847 145.5,355.5C 144.262,355.19 144.262,354.69 145.5,354C 163.481,346.295 181.147,338.128 198.5,329.5C 199.492,329.672 200.158,329.338 200.5,328.5C 225.475,317.677 250.141,306.344 274.5,294.5C 305.08,280.87 335.414,266.87 365.5,252.5C 377.073,248.047 388.406,243.047 399.5,237.5C 400.167,237.5 400.5,237.167 400.5,236.5C 413.917,231.257 426.917,225.257 439.5,218.5C 440.492,218.672 441.158,218.338 441.5,217.5C 472.505,203.915 503.339,189.915 534,175.5C 527.677,201.126 521.177,226.792 514.5,252.5 Z"/></g>
<g><path style="opacity:1" fill="#0166bd" d="M 278.5,439.5 C 270.562,465.317 263.228,491.317 256.5,517.5C 256.167,517.5 255.833,517.5 255.5,517.5C 253.157,484.39 250.157,451.39 246.5,418.5C 248.255,417.928 249.922,417.094 251.5,416C 343.5,337.667 435.5,259.333 527.5,181C 528.167,180.333 528.833,180.333 529.5,181C 445.267,266.731 361.601,352.898 278.5,439.5 Z"/></g>
<g><path style="opacity:1" fill="#fefffe" d="M 93.5,252.5 C 128.5,252.5 163.5,252.5 198.5,252.5C 198.5,266.167 198.5,279.833 198.5,293.5C 163.5,293.5 128.5,293.5 93.5,293.5C 93.5,279.833 93.5,266.167 93.5,252.5 Z"/></g>
<g><path style="opacity:1" fill="#fdfefe" d="M 274.5,252.5 C 304.833,252.5 335.167,252.5 365.5,252.5C 335.414,266.87 305.08,280.87 274.5,294.5C 274.5,280.5 274.5,266.5 274.5,252.5 Z"/></g>
<g><path style="opacity:1" fill="#fefeff" d="M 514.5,252.5 C 544.167,252.5 573.833,252.5 603.5,252.5C 603.5,266.167 603.5,279.833 603.5,293.5C 570.5,293.5 537.5,293.5 504.5,293.5C 507.986,279.888 511.319,266.222 514.5,252.5 Z"/></g>
<g><path style="opacity:1" fill="#f1efea" d="M 93.5,293.5 C 128.5,293.5 163.5,293.5 198.5,293.5C 198.5,305.5 198.5,317.5 198.5,329.5C 181.147,338.128 163.481,346.295 145.5,354C 144.262,354.69 144.262,355.19 145.5,355.5C 161.833,380.167 178.167,404.833 194.5,429.5C 160.5,429.5 126.5,429.5 92.5,429.5C 92.1679,383.997 92.5012,338.664 93.5,293.5 Z"/></g>
<g><path style="opacity:1" fill="#f9e2b0" d="M 198.5,252.5 C 198.833,252.5 199.167,252.5 199.5,252.5C 199.169,278.005 199.502,303.339 200.5,328.5C 200.158,329.338 199.492,329.672 198.5,329.5C 198.5,317.5 198.5,305.5 198.5,293.5C 198.5,279.833 198.5,266.167 198.5,252.5 Z"/></g>
<g><path style="opacity:1" fill="#d8d7d3" d="M 145.5,355.5 C 163.536,366.847 181.536,378.181 199.5,389.5C 198.504,402.656 198.171,415.99 198.5,429.5C 197.167,429.5 195.833,429.5 194.5,429.5C 178.167,404.833 161.833,380.167 145.5,355.5 Z"/></g>
<g><path style="opacity:1" fill="#ddc89a" d="M 199.5,389.5 C 200.167,389.5 200.5,389.833 200.5,390.5C 199.505,403.323 199.171,416.323 199.5,429.5C 199.167,429.5 198.833,429.5 198.5,429.5C 198.171,415.99 198.504,402.656 199.5,389.5 Z"/></g>
<g><path style="opacity:1" fill="#e3b95d" d="M 200.5,390.5 C 215.833,399.833 231.167,409.167 246.5,418.5C 250.157,451.39 253.157,484.39 255.5,517.5C 237.08,490.326 218.413,463.326 199.5,436.5C 199.5,434.167 199.5,431.833 199.5,429.5C 199.171,416.323 199.505,403.323 200.5,390.5 Z"/></g>
<g><path style="opacity:1" fill="#fedd48" d="M 92.5,429.5 C 126.5,429.5 160.5,429.5 194.5,429.5C 195.833,429.5 197.167,429.5 198.5,429.5C 198.833,429.5 199.167,429.5 199.5,429.5C 199.5,431.833 199.5,434.167 199.5,436.5C 199.5,453.833 199.5,471.167 199.5,488.5C 199.167,488.5 198.833,488.5 198.5,488.5C 163.167,488.5 127.833,488.5 92.5,488.5C 92.5,468.833 92.5,449.167 92.5,429.5 Z"/></g>
<g><path style="opacity:1" fill="#fedd48" d="M 469.5,429.5 C 514.5,429.5 559.5,429.5 604.5,429.5C 604.83,449.34 604.497,469.007 603.5,488.5C 553.664,488.832 503.997,488.499 454.5,487.5C 458.898,467.904 463.898,448.571 469.5,429.5 Z"/></g>
<g><path style="opacity:1" fill="#fece67" d="M 199.5,436.5 C 218.413,463.326 237.08,490.326 255.5,517.5C 255.833,517.5 256.167,517.5 256.5,517.5C 262.167,512.167 267.833,506.833 273.5,501.5C 273.5,535.5 273.5,569.5 273.5,603.5C 248.833,603.5 224.167,603.5 199.5,603.5C 199.5,565.167 199.5,526.833 199.5,488.5C 199.5,471.167 199.5,453.833 199.5,436.5 Z"/></g>
<g><path style="opacity:1" fill="#034f9d" d="M 278.5,439.5 C 290.68,446.086 302.347,453.419 313.5,461.5C 304.167,470.167 295.167,479.167 286.5,488.5C 282.167,492.167 278.167,496.167 274.5,500.5C 273.833,500.5 273.5,500.833 273.5,501.5C 267.833,506.833 262.167,512.167 256.5,517.5C 263.228,491.317 270.562,465.317 278.5,439.5 Z"/></g>
<g><path style="opacity:1" fill="#e3c642" d="M 313.5,461.5 C 327.816,470.14 342.149,478.806 356.5,487.5C 333.339,488.498 310.006,488.831 286.5,488.5C 295.167,479.167 304.167,470.167 313.5,461.5 Z"/></g>
<g><path style="opacity:1" fill="#f2f0eb" d="M 92.5,488.5 C 127.833,488.5 163.167,488.5 198.5,488.5C 198.5,527.167 198.5,565.833 198.5,604.5C 149.199,607.315 115.366,585.982 97,540.5C 92.9957,523.407 91.4957,506.074 92.5,488.5 Z"/></g>
<g><path style="opacity:1" fill="#d9d8d4" d="M 356.5,487.5 C 384.026,505.094 411.693,522.428 439.5,539.5C 439.5,539.833 439.5,540.167 439.5,540.5C 427.194,538.891 414.861,537.558 402.5,536.5C 401.791,535.596 400.791,535.263 399.5,535.5C 357.851,530.419 316.185,525.419 274.5,520.5C 274.5,513.833 274.5,507.167 274.5,500.5C 278.167,496.167 282.167,492.167 286.5,488.5C 310.006,488.831 333.339,488.498 356.5,487.5 Z"/></g>
<g><path style="opacity:1" fill="#a3c9fe" d="M 454.5,487.5 C 503.997,488.499 553.664,488.832 603.5,488.5C 609.954,528.666 597.62,561.499 566.5,587C 553.157,596.005 538.49,601.672 522.5,604C 495.169,604.5 467.835,604.667 440.5,604.5C 440.831,582.993 440.497,561.66 439.5,540.5C 439.5,540.167 439.5,539.833 439.5,539.5C 440.558,538.4 441.392,537.066 442,535.5C 445.575,519.195 449.741,503.195 454.5,487.5 Z"/></g>
<g><path style="opacity:1" fill="#f1efea" d="M 274.5,520.5 C 316.185,525.419 357.851,530.419 399.5,535.5C 399.5,558.5 399.5,581.5 399.5,604.5C 357.833,604.5 316.167,604.5 274.5,604.5C 274.5,576.5 274.5,548.5 274.5,520.5 Z"/></g>
<g><path style="opacity:1" fill="#fefefe" d="M 402.5,536.5 C 414.861,537.558 427.194,538.891 439.5,540.5C 439.5,561.5 439.5,582.5 439.5,603.5C 426.5,603.5 413.5,603.5 400.5,603.5C 399.844,580.808 400.511,558.475 402.5,536.5 Z"/></g>
<g><path style="opacity:1" fill="#f7dda6" d="M 198.5,488.5 C 198.833,488.5 199.167,488.5 199.5,488.5C 199.5,526.833 199.5,565.167 199.5,603.5C 224.167,603.5 248.833,603.5 273.5,603.5C 273.5,569.5 273.5,535.5 273.5,501.5C 273.5,500.833 273.833,500.5 274.5,500.5C 274.5,507.167 274.5,513.833 274.5,520.5C 274.5,548.5 274.5,576.5 274.5,604.5C 249.167,604.5 223.833,604.5 198.5,604.5C 198.5,565.833 198.5,527.167 198.5,488.5 Z"/></g>
</svg>
