<svg version="1.1" id="Layer_1" xmlns:x="ns_extend;" xmlns:i="ns_ai;" xmlns:graph="ns_graphs;" xmlns="http://www.w3.org/2000/svg" xmlns:xlink="http://www.w3.org/1999/xlink" x="0px" y="0px" viewBox="0 0 95.9 44.9" style="enable-background:new 0 0 95.9 44.9;" xml:space="preserve">
 <style type="text/css">
  .st0{fill:none;}
	.st1{fill:url(#SVGID_1_);}
 </style>
 <metadata>
  <sfw xmlns="ns_sfw;">
   <slices>
   </slices>
   <sliceSourceBounds bottomLeftOrigin="true" height="44.9" width="95.9" x="152.3" y="-222">
   </sliceSourceBounds>
  </sfw>
 </metadata>
 <g>
  <g>
   <g>
    <path class="st0" d="M71.6,40.2c2.5-2.5,3.4-6.8,2.3-9.5c-1.9,1.1-3.8,2.4-4.9,3.6C64,39.3,68.2,43.6,71.6,40.2L71.6,40.2z
				 M50.3,26.7c2.4,0,4.8-2.8,5.4-6.4c0.1-0.5,0.1-0.9,0.2-1.4c0.2-3.5-1.4-6.1-3.8-6.1c-2.6,0-5,3.1-5.5,7S47.8,26.7,50.3,26.7z
				 M84,21.9c3.4-2,6.3-4.6,6.3-7c0-2.5-2.8-3.2-5.3-0.7c-1.5,1.5-2.3,4.2-2.3,6.3c0,0.7,0.1,1.4,0.2,2C83.3,22.3,83.7,22.1,84,21.9
				z M13.6,26.7c1,0,2.1-0.5,2.9-1.3c3.3-3.4,3.2-9.2,1-11.5c-0.7-0.7-1.5-1.1-2.5-1.1c-1.1,0-2.1,0.5-3,1.4
				c-3.1,3.1-3.3,9-0.9,11.4C11.8,26.2,12.7,26.7,13.6,26.7L13.6,26.7z">
    </path>
    <linearGradient id="SVGID_1_" gradientUnits="userSpaceOnUse" x1="-148.6569" y1="215.0301" x2="-147.7072" y2="215.2905" gradientTransform="matrix(95.9141 0 0 -44.8954 14258.1084 9681.0527)">
     <stop offset="0.13" style="stop-color:#3BCCDE">
     </stop>
     <stop offset="0.64" style="stop-color:#F7918F">
     </stop>
     <stop offset="0.7" style="stop-color:#F8918A">
     </stop>
     <stop offset="0.77" style="stop-color:#F9927B">
     </stop>
     <stop offset="0.84" style="stop-color:#FC9362">
     </stop>
     <stop offset="0.9" style="stop-color:#FF944A">
     </stop>
    </linearGradient>
    <path class="st1" d="M3.9,0.7C3.7,1.4,3.6,2.1,3.5,2.9c0,0.5,0.3,0.7,0.7,0.7h4.5C8,8,6.6,16.7,6.2,18.9
				c-0.5,2.8-2.5,6.2-5.7,7.4c-0.4,0.1-0.6,0.5-0.4,1c0.3,0.6,0.6,1.3,0.9,1.9c0.2,0.3,0.6,0.5,0.9,0.4c1.7-0.6,3.2-1.6,4.5-2.8
				c0.3-0.3,0.6-0.7,0.9-1c1.5,3.4,4.5,4.6,7.5,4.6c3.5,0,7.2-1.2,9.8-3.9c3.1-3.1,4.3-8.2,4.9-11.9c0.8,0.1,1.6,0.2,2.5,0.2
				c1.3,0,2.6-0.2,3.9-0.5c0,0-2.1,5.7-2.1,9.9c0,4.8,2.2,6.1,4.7,6.1c2.6,0,4.3-1.9,5.6-4.3c0.3,0.7,0.8,1.6,1.5,2.3
				c1.2,1.2,2.6,2,4.7,2c2.4,0,4.4-1.4,5.8-3.5c0.3,0.9,0.7,1.6,1.2,2.2c0.7,0.7,2.1,1.3,3.7,1.3c2.9,0,4.5-2.2,9-2.2
				c0.5,0,1,0.1,1.5,0.3c-2.1,1.3-4,2.6-5.2,3.8c-3.7,3.8-3.9,8.7-1.4,11.1c2.9,3,7.1,1.5,9.7-1.2c3.1-3.1,4-9,2.2-13
				c2.1-1.1,3.9-2,4.4-2.2c1.3,1.9,3.6,3.3,7.2,3.3c2.6,0,5.2-0.9,7.3-2.5c0.2-0.1,0.3-0.3,0.3-0.5c0-0.2,0-0.4-0.1-0.5
				c0,0-0.9-1.4-1.2-1.7c-0.2-0.3-0.4-0.6-1.1-0.1c-1.4,1-3.1,1.9-5.1,1.9c-1.5,0-2.9-0.4-3.9-1.3c0.4-0.2,0.9-0.4,1.3-0.6
				c2.4-1.3,4.3-2.9,5.3-3.9c4.6-4.7,3.2-11.6-2.4-11.6c-5.3,0-9.5,5.2-9.5,11c0,1.2,0.2,2.3,0.5,3.5c-0.3,0.1-2.4,1.2-4.9,2.6
				c-2.4-1.8-6-1-6-1c3.4-4.9,8.6-12.6,9-13.2c0.3-0.5,0.3-0.9,0-1.6c-0.4-0.9-0.8-1-1.3-1H65.6c-0.3,0-0.7,0.2-0.7,0.6
				c-0.1,0.4-0.3,1.8-0.4,2.2s0.4,0.8,0.8,0.8h7.7l-7,10.2c-0.1,0-0.1,0.1-0.1,0.1c-1,1.5-2.6,3.6-4.5,3.6c-1.2,0-2.6-0.8-2.6-3.6
				c0-2.7,1.1-8.4,1.9-12.9c0.1-0.5-0.1-0.9-0.8-0.9h-1.9c-0.4,0-0.7,0.3-0.7,0.6c-0.1,0.7-0.2,1.4-0.3,2c-0.9-1.8-2.4-2.9-4.6-2.9
				c-2.1,0-4.1,0.9-5.6,2.4c-4,4.1-3.2,10.7-6.7,14.2c-1.5,1.5-3.2,1-3.2-1.9c0-3.4,1.3-7.2,2.7-10.8c0.3-0.6,0-1.2-0.3-1.6
				c-0.4-0.6-0.5-0.9-1.2-0.9c-1.1,0-2.8,0.7-6.3,0.7c-0.7,0-1.4,0-2.1-0.1c0-0.5,0-0.9,0.1-1c0-0.5-0.1-0.8-0.7-0.8h-1.8
				c-0.6,0-0.8,0.3-0.9,0.8c-0.3,2.2-0.9,10.1-4.8,14.1c-0.2,0.2-0.5,0.4-0.7,0.6c1-1.9,1.5-4.5,1.5-6.5c0-5.7-3.3-9.2-7.5-9.2
				c-1.4,0-2.7,0.4-3.9,1.2c0.6-3.5,1.1-6.7,1.3-7.8c0.2-0.9-0.2-1.4-0.4-1.8C11.6,0.3,11.3,0,10.7,0H4.6C4.2,0,4,0.3,3.9,0.7
				L3.9,0.7z M85,14.2c2.5-2.5,5.3-1.8,5.3,0.7c0,2.4-2.8,5-6.3,7c-0.3,0.2-0.7,0.4-1.1,0.6c-0.1-0.7-0.2-1.3-0.2-2
				C82.7,18.4,83.5,15.7,85,14.2z M71.6,40.2c-3.3,3.4-7.6-0.9-2.6-6c1.1-1.1,3-2.4,4.9-3.6C75,33.5,74.1,37.7,71.6,40.2z
				 M46.6,19.7c0.5-3.8,3-7,5.5-7c2.4,0,4,2.7,3.8,6.1c-0.1,0.5-0.1,1-0.2,1.4c-0.7,3.6-3,6.4-5.4,6.4
				C47.8,26.7,46.1,23.6,46.6,19.7z M12,14.1c0.9-0.9,1.9-1.4,3-1.4c1,0,1.8,0.4,2.5,1.1c2.2,2.3,2.4,8.1-1,11.5
				c-0.8,0.8-1.9,1.3-2.9,1.3c-1,0-1.8-0.4-2.5-1.1C8.8,23.1,9,17.2,12,14.1L12,14.1z">
    </path>
   </g>
  </g>
 </g>
</svg>