<svg width="40" height="40" viewBox="0 0 40 40" fill="none" xmlns="http://www.w3.org/2000/svg">
<g clip-path="url(#clip0_569_4490)">
<path fill-rule="evenodd" clip-rule="evenodd" d="M19.8325 24.685L15.0785 27.4082C14.9746 27.4659 14.8477 27.3967 14.8477 27.2697V16.0308C14.8477 15.9154 14.9169 15.8 15.0208 15.7423L19.7748 13.0191C19.8787 12.9614 20.0056 13.0422 20.0056 13.1576V24.3965C20.0056 24.5119 19.9364 24.6273 19.8325 24.685ZM26.3058 16.5038L21.5633 13.7806C21.4594 13.7229 21.3325 13.7921 21.3325 13.919V24.4426C21.3325 24.5234 21.4018 24.6042 21.4825 24.6042H26.3289C26.4097 24.6042 26.4789 24.5349 26.4789 24.4426V16.7922C26.4789 16.6769 26.4212 16.5615 26.3058 16.5038ZM32.7907 20.2195L28.0482 17.4963C27.9443 17.4386 27.8174 17.5078 27.8174 17.6348V24.3966C27.8174 24.512 27.8866 24.6274 27.9905 24.6851L32.7445 27.4083C32.8484 27.466 32.9753 27.3967 32.9753 27.2698V20.508C32.9638 20.3926 32.8946 20.2772 32.7907 20.2195ZM34.2908 21.3502V24.4426C34.2908 24.5234 34.36 24.6042 34.4523 24.6042H39.841C40.0025 24.6042 40.0602 24.3964 39.9218 24.3157L34.5331 21.2232C34.4292 21.154 34.2908 21.2232 34.2908 21.3502ZM0.0777312 24.2926L13.2783 16.7345C13.3822 16.6768 13.5091 16.7461 13.5206 16.873V24.4195C13.5206 24.5118 13.4399 24.581 13.3591 24.581H0.158504C-0.00304168 24.581 -0.0607367 24.3733 0.0777312 24.2926Z" fill="#FF0017"/>
</g>
<defs>
<clipPath id="clip0_569_4490">
<rect width="40" height="40" fill="white"/>
</clipPath>
</defs>
</svg>
