<svg xmlns="http://www.w3.org/2000/svg" height="800" width="1200" viewBox="-5.600205 -9.55 48.53511 57.3"><g fill="none"><path d="M1.3347 31.7h-1.3V38h1.3v-2.6h2.8V38h1.3v-6.3h-1.3v2.5h-2.8zm10 3.6c0 1-.5 1.6-1.4 1.6-.9 0-1.4-.6-1.4-1.6v-3.5h-1.3v3.6c0 1.8 1 2.8 2.7 2.8 1.7 0 2.7-1 2.7-2.8v-3.5h-1.3zm12.2-3.6l-1.4 4.3-1.4-4.3h-1.3l2.1 6.3h1.1l1.4-4.1 1.4 4.1h1.1l2.2-6.3h-1.3l-1.4 4.3-1.4-4.3zm9.8 2.4h-2.3v-1.2h3.3v-1.2h-4.6V38h4.7v-1.2h-3.4v-1.5h2.3zm2.7-2.4h1.3V38h-1.3zm-18.1 5l.6 1.3h1.3l-2.7-6.2h-1.1l-2.8 6.3h1.3l.5-1.2v-.1h2.9zm-1.4-3.4l.9 2.1.1.1h-1.9l.1-.1z" fill="#262729"/><path fill="#CF0A2C" d="M16.0347 21.9s.1-.1 0-.1c-4.4-9.5-10.4-16.8-10.4-16.8s-3.3 3.1-3 6.2c.1 2.3 1.9 3.7 1.9 3.7 2.8 2.8 9.7 6.2 11.3 7 .1 0 .1.1.2 0m-1.1 2.4c0-.1-.1-.1-.1-.1l-11.5.4c1.2 2.2 3.3 3.9 5.5 3.4 1.5-.4 4.9-2.7 6-3.5l.1-.2m.2-1.1c.1-.1 0-.2 0-.2-5-3.4-14.8-8.6-14.8-8.6-.9 2.7.3 4.9.3 4.9 1.2 2.6 3.6 3.4 3.6 3.4 1.1.4 2.2.5 2.2.5h8.6c0 .1.1 0 .1 0m.8-23.1c-.5 0-1.8.3-1.8.3-3 .8-3.8 3.5-3.8 3.5-.6 1.7 0 3.6 0 3.6 1 4.5 6 11.8 7.1 13.4.1.1.1 0 .1 0 .1 0 .1-.1.1-.1 1.6-16.4-1.7-20.7-1.7-20.7m3.7 20.9c.1 0 .2-.1.2-.1 1.1-1.6 6.1-8.9 7.1-13.4 0 0 .5-2.2 0-3.6 0 0-.7-2.8-3.8-3.5l-1.8-.4s-3.4 4.4-1.7 20.8v.2m2.8 3.2s-.1 0-.1.1v.2c1.1.8 4.4 3.1 6 3.6 0 0 3 1 5.5-3.4zm14.5-9.7s-9.7 5.2-14.8 8.6c0 0-.1.1-.1.2 0 0 0 .1.1.1h8.8s.9 0 2-.5c0 0 2.4-.8 3.7-3.5 0-.1 1.1-2.3.3-4.9m-15.7 7.4s.1.1.2 0c1.6-.8 8.5-4.3 11.3-7 0 0 1.8-1.4 1.9-3.7.2-3.2-3-6.2-3-6.2s-6 7.2-10.4 16.7c0 0-.1.1 0 .2"/></g></svg>