<?xml version="1.0"?>
<svg viewBox="0 0 32 32" xmlns="http://www.w3.org/2000/svg" xmlns:svg="http://www.w3.org/2000/svg" version="1.1">
 <title>icon</title>
 <defs>
  <linearGradient id="linearGradient-1" x1="1.66813914%" x2="94.8003129%" y1="33.9177761%" y2="90.5161606%">
   <stop offset="0%" stop-color="#3939E5"/>
   <stop offset="28%" stop-color="#4B7CFF"/>
   <stop offset="100%" stop-color="#1AE2A4"/>
  </linearGradient>
  <linearGradient id="linearGradient-2" x1="61.4168736%" x2="38.2298617%" y1="4.01682673%" y2="100.420668%">
   <stop offset="0%" stop-color="#28ADDD"/>
   <stop offset="100%" stop-color="#1AE2A4"/>
  </linearGradient>
 </defs>
 <g class="layer">
  <title>Layer 1</title>
  <g id="编组-17备份-2" transform="matrix(1 0 0 1 -760 -299)">
   <g id="Group">
    <path d="m787.49,319.14c-2.35,-1.98 -9.18,-8.37 -16.95,-7.89c-7.77,0.48 -8.73,5.53 -9.17,12.39l-0.55,0c-0.01,-0.16 -0.01,-0.32 0,-0.48c-0.02,-9.9 8.33,-24.16 15.18,-24.16c6.84,0 15.94,14.26 15.94,24.18c0,0.76 -0.8,-0.42 -2.12,-1.81c-0.72,-0.73 -1.48,-1.55 -2.33,-2.23z" fill="url(#linearGradient-1)" id="Path"/>
    <path d="m760,323.07c0,-9.99 9.09,-24.07 16,-24.07c1.22,0.04 2.42,0.39 3.47,1.02c1.19,0.73 2.29,1.6 3.27,2.6c-4.03,-3.01 -7.47,-2.62 -8.99,-0.8c-2.9,3.49 -2.09,13.81 3.24,17.37c1.46,0.95 -6.33,3.34 -10.55,4.25c-4.22,0.9 -6.44,1.34 -6.44,-0.37z" fill="url(#linearGradient-2)" id="路径"/>
   </g>
  </g>
  <g id="svg_1" transform="matrix(1 0 0 1 -760 -299)">
   <g id="svg_2">
    <path d="m787.49,319.14c-2.35,-1.98 -9.18,-8.37 -16.95,-7.89c-7.77,0.48 -8.73,5.53 -9.17,12.39l-0.55,0c-0.01,-0.16 -0.01,-0.32 0,-0.48c-0.02,-9.9 8.33,-24.16 15.18,-24.16c6.84,0 15.94,14.26 15.94,24.18c0,0.76 -0.8,-0.42 -2.12,-1.81c-0.72,-0.73 -1.48,-1.55 -2.33,-2.23z" fill="url(#linearGradient-1)" id="svg_3"/>
    <path d="m760,323.07c0,-9.99 9.09,-24.07 16,-24.07c1.22,0.04 2.42,0.39 3.47,1.02c1.19,0.73 2.29,1.6 3.27,2.6c-4.03,-3.01 -7.47,-2.62 -8.99,-0.8c-2.9,3.49 -2.09,13.81 3.24,17.37c1.46,0.95 -6.33,3.34 -10.55,4.25c-4.22,0.9 -6.44,1.34 -6.44,-0.37z" fill="url(#linearGradient-2)" id="svg_4"/>
   </g>
  </g>
 </g>
</svg>