<svg xmlns="http://www.w3.org/2000/svg" xmlns:xlink="http://www.w3.org/1999/xlink" version="1.1" width="256" height="256" viewBox="0 0 256 256" xml:space="preserve">

<defs>
</defs>
<g style="stroke: none; stroke-width: 0; stroke-dasharray: none; stroke-linecap: butt; stroke-linejoin: miter; stroke-miterlimit: 10; fill: none; fill-rule: nonzero; opacity: 1;" transform="translate(1.4065934065934016 1.4065934065934016) scale(2.81 2.81)" >
	<path d="M 68.687 46.169 c 8.686 -0.022 15.747 6.998 15.774 15.684 v 12.463 C 84.439 83 77.381 90.022 68.697 90 c -0.003 0 -0.007 0 -0.01 0 h -23.2 c -6.803 0.01 -12.845 -4.342 -14.992 -10.797 l -13.868 6.874 c -3.775 1.886 -8.365 0.371 -10.275 -3.392 c -0.534 -1.058 -0.812 -2.227 -0.813 -3.412 V 56.936 c 0.031 -4.234 3.489 -7.641 7.723 -7.609 c 1.176 0.009 2.334 0.288 3.385 0.816 l 13.757 6.924 c 2.115 -6.52 8.198 -10.928 15.052 -10.908 h 23.2 L 68.687 46.169 z M 68.586 54.197 H 45.727 c -4.295 -0.012 -7.805 3.423 -7.887 7.717 v 12.202 c 0.016 4.29 3.467 7.777 7.757 7.837 h 22.869 c 4.291 0.012 7.8 -3.417 7.887 -7.707 V 62.074 c -0.016 -4.294 -3.473 -7.782 -7.767 -7.837 V 54.197 z M 15.794 59.063 c -1.122 -0.001 -2.044 0.886 -2.087 2.007 v 14.048 c 0.012 1.158 0.96 2.087 2.119 2.076 c 0.309 -0.003 0.614 -0.075 0.892 -0.209 l 0 0 l 12.955 -6.532 v -4.656 l -12.985 -6.482 C 16.412 59.165 16.107 59.079 15.794 59.063 z M 35.051 0 c 7.725 -0.006 14.851 4.162 18.634 10.898 c 7.383 -6.831 18.906 -6.384 25.737 0.999 c 6.831 7.383 6.384 18.906 -0.999 25.737 c -7.383 6.831 -18.906 6.384 -25.737 -0.999 c -0.485 -0.524 -0.939 -1.077 -1.359 -1.654 c -7.548 9.011 -20.972 10.196 -29.982 2.648 S 11.148 16.657 18.696 7.646 C 22.749 2.808 28.74 0.018 35.051 0.03 L 35.051 0 z M 35.051 8.529 c -7.005 0.039 -12.652 5.749 -12.613 12.754 c 0.039 7.005 5.749 12.652 12.754 12.613 c 6.977 -0.039 12.613 -5.706 12.613 -12.683 c -0.044 -7.008 -5.746 -12.66 -12.754 -12.644 L 35.051 8.529 z M 66.158 14.55 c -5.365 -0.017 -9.727 4.319 -9.744 9.683 c 0 0 0 0 0 0 l 0 0 c 0.017 5.365 4.379 9.7 9.743 9.683 c 0 0 0 0 0 0 l 0 0 c 5.365 0.017 9.727 -4.319 9.744 -9.683 c 0 0 0 0 0 0 l 0 0 C 75.885 18.869 71.522 14.534 66.158 14.55 C 66.158 14.55 66.158 14.55 66.158 14.55 z" style="stroke: none; stroke-width: 1; stroke-dasharray: none; stroke-linecap: butt; stroke-linejoin: miter; stroke-miterlimit: 10; fill: rgb(255,61,19); fill-rule: nonzero; opacity: 1;" transform=" matrix(1 0 0 1 0 0) " stroke-linecap="round" />
</g>
</svg>