<svg xmlns="http://www.w3.org/2000/svg" viewBox="0 0 893.71 150">
  <g id="red-icon_??" data-name="red-icon+??" transform="translate(-414 -355.999)">
    <g id="?_3664" data-name="? 3664" transform="translate(320.836 161.367)">
      <g id="?_3659" data-name="? 3659" transform="translate(93.164 194.632)">
        <path id="??_1195" data-name="?? 1195" d="M319.405,196.39,244.956,270.84a1.05,1.05,0,0,1-1.793-.743V199.133a4.5,4.5,0,0,0-4.5-4.5H209.648a6,6,0,0,0-4.242,1.758L94.921,306.874a6,6,0,0,0-1.757,4.243v29.015a4.5,4.5,0,0,0,4.5,4.5h29.014a6.014,6.014,0,0,0,4.243-1.757l74.45-74.451a1.051,1.051,0,0,1,1.793.743v70.965a4.5,4.5,0,0,0,4.5,4.5h29.015a6.014,6.014,0,0,0,4.242-1.757L355.4,232.39a6,6,0,0,0,1.757-4.243V199.133a4.5,4.5,0,0,0-4.5-4.5H323.647a6.006,6.006,0,0,0-4.242,1.758Z" transform="translate(-93.164 -194.632)" fill="#ff4132"/>
        <path id="??_1196" data-name="?? 1196" d="M271.863,324.893h39a4.5,4.5,0,0,0,4.5-4.5v-39a4.5,4.5,0,0,0-4.5-4.5h-39a4.5,4.5,0,0,0-4.5,4.5v39a4.5,4.5,0,0,0,4.5,4.5Z" transform="translate(-51.364 -174.893)" fill="#ff4132"/>
      </g>
      <g id="?_3663" data-name="? 3663" transform="translate(420.162 239.632)">
        <g id="?_3660" data-name="? 3660" transform="translate(458.929 0)">
          <path id="??_1197" data-name="?? 1197" d="M833.731,335.924H749.42A22.423,22.423,0,0,1,727,313.5V231.974a1.049,1.049,0,0,1,1.05-1.05h14.717a1.049,1.049,0,0,1,1.049,1.05v78.206a8.927,8.927,0,0,0,8.926,8.926h64.175a1.05,1.05,0,0,0,1.049-1.05V231.974a1.05,1.05,0,0,1,1.051-1.05h14.717a1.05,1.05,0,0,1,1.05,1.05v102.9a1.05,1.05,0,0,1-1.05,1.05Z" transform="translate(-726.998 -230.924)" fill="#000000"/>
        </g>
        <path id="??_1198" data-name="?? 1198" d="M472.7,230.924H357.931a1.05,1.05,0,0,0-1.051,1.05v102.9a1.05,1.05,0,0,0,1.051,1.05h14.717a1.05,1.05,0,0,0,1.05-1.05V248.791a1.049,1.049,0,0,1,1.05-1.05h41.793a1.05,1.05,0,0,1,1.05,1.05v86.083a1.05,1.05,0,0,0,1.05,1.05h14.717a1.05,1.05,0,0,0,1.049-1.05V248.791a1.05,1.05,0,0,1,1.05-1.05h33.919a8.926,8.926,0,0,1,8.924,8.925v78.208a1.05,1.05,0,0,0,1.05,1.05h14.717a1.05,1.05,0,0,0,1.051-1.05V253.346A22.423,22.423,0,0,0,472.7,230.924Z" transform="translate(-356.881 -230.924)" fill="#000000"/>
        <g id="?_3661" data-name="? 3661" transform="translate(290.12 0)">
          <path id="??_1199" data-name="?? 1199" d="M606.624,335.924H591.907a1.05,1.05,0,0,1-1.05-1.05v-102.9a1.05,1.05,0,0,1,1.05-1.05h14.717a1.05,1.05,0,0,1,1.051,1.05v102.9a1.05,1.05,0,0,1-1.051,1.05Z" transform="translate(-590.857 -230.924)" fill="#000000"/>
        </g>
        <path id="??_1200" data-name="?? 1200" d="M593.933,246.691V231.974a1.05,1.05,0,0,0-1.05-1.05H487.2a1.049,1.049,0,0,0-1.049,1.05V313.5a22.423,22.423,0,0,0,22.422,22.423h84.311a1.05,1.05,0,0,0,1.05-1.05V320.156a1.05,1.05,0,0,0-1.05-1.05H511.891a8.924,8.924,0,0,1-8.925-8.926v-17.3a1.05,1.05,0,0,1,1.05-1.05h83.1a1.049,1.049,0,0,0,1.05-1.05V276.065a1.049,1.049,0,0,0-1.05-1.049h-83.1a1.05,1.05,0,0,1-1.05-1.05V248.791a1.05,1.05,0,0,1,1.05-1.05h88.867a1.05,1.05,0,0,0,1.05-1.049Z" transform="translate(-325.862 -230.924)" fill="#000000"/>
        <g id="?_3662" data-name="? 3662" transform="translate(328.987 0)">
          <path id="??_1201" data-name="?? 1201" d="M656.509,319.106h72.535a1.05,1.05,0,0,1,1.051,1.05v14.717a1.05,1.05,0,0,1-1.051,1.05h-103.1a3.735,3.735,0,0,1-2.774-6.236l73.007-81.071a.525.525,0,0,0-.391-.877H623.254a1.05,1.05,0,0,1-1.051-1.05V231.974a1.05,1.05,0,0,1,1.051-1.05h103.1a3.734,3.734,0,0,1,2.774,6.235L656.12,318.231a.525.525,0,0,0,.389.875Z" transform="translate(-622.203 -230.924)" fill="#000000"/>
        </g>
      </g>
    </g>
  </g>
     </svg>