<svg version="1.1" id="Layer_1" xmlns:x="ns_extend;" xmlns:i="ns_ai;" xmlns:graph="ns_graphs;" xmlns="http://www.w3.org/2000/svg" xmlns:xlink="http://www.w3.org/1999/xlink" x="0px" y="0px" viewBox="0 0 349.1 83" style="enable-background:new 0 0 349.1 83;" xml:space="preserve">
 <style type="text/css">
  .st0{fill-rule:evenodd;clip-rule:evenodd;fill:#046A38;}
 </style>
 <metadata>
  <sfw xmlns="ns_sfw;">
   <slices>
   </slices>
   <sliceSourceBounds bottomLeftOrigin="true" height="83" width="349.1" x="36.8" y="-253.9">
   </sliceSourceBounds>
  </sfw>
 </metadata>
 <g>
  <path class="st0" d="M41.4,52.9L41.4,52.9L41.4,52.9c-17.6-0.2-29-8.6-29-21.3s11.4-21.1,29-21.3c17.6,0.2,29,8.6,29,21.3
		S59,52.8,41.4,52.9z M42,0c0,0-0.4,0-0.5,0c-0.2,0-0.5,0-0.5,0C16.8,0.4,0,13.4,0,31.6s16.8,31.2,40.9,31.6c0,0,0.4,0,0.5,0
		c0.2,0,0.5,0,0.5,0C66,62.9,82.8,49.8,82.8,31.6S66,0.4,42,0z">
  </path>
  <path class="st0" d="M307.7,52.9L307.7,52.9L307.7,52.9c-17.6-0.2-29-8.6-29-21.3s11.4-21.1,29-21.3c17.6,0.2,29,8.6,29,21.3
		S325.3,52.8,307.7,52.9z M308.2,0c0,0-0.4,0-0.5,0c-0.2,0-0.5,0-0.5,0c-24.1,0.4-40.9,13.4-40.9,31.6s16.8,31.2,40.9,31.6
		c0,0,0.4,0,0.5,0c0.2,0,0.5,0,0.5,0c24.1-0.4,40.9-13.4,40.9-31.6S332.3,0.4,308.2,0z">
  </path>
  <path class="st0" d="M219.1,52.9L219.1,52.9L219.1,52.9c-17.6-0.2-29-8.6-29-21.3s11.4-21.1,29-21.3c17.6,0.2,29,8.6,29,21.3
		S236.7,52.8,219.1,52.9z M219.6,0c0,0-0.4,0-0.5,0c-0.2,0-0.5,0-0.5,0c-11.5,0.2-21.3,3.2-28.4,8.3V3h-12.5v80h12.5V54.9
		c7.1,5.1,17,8.2,28.4,8.3c0,0,0.4,0,0.5,0c0.2,0,0.5,0,0.5,0c24.1-0.4,40.9-13.4,40.9-31.6S243.7,0.4,219.6,0z">
  </path>
  <path class="st0" d="M130.3,52.9L130.3,52.9L130.3,52.9c-17.6-0.2-29-8.6-29-21.3s11.4-21.1,29-21.3c17.6,0.2,29,8.6,29,21.3
		S147.9,52.8,130.3,52.9z M130.8,0c0,0-0.4,0-0.5,0c-0.2,0-0.5,0-0.5,0c-11.5,0.2-21.3,3.2-28.4,8.3V3H88.8v80h12.5V54.9
		c7.1,5.1,17,8.2,28.4,8.3c0,0,0.4,0,0.5,0c0.2,0,0.5,0,0.5,0c24.1-0.4,40.9-13.4,40.9-31.6S154.9,0.4,130.8,0z">
  </path>
 </g>
</svg>