<svg xmlns:dc="http://purl.org/dc/elements/1.1/" xmlns:cc="http://creativecommons.org/ns#" xmlns:rdf="http://www.w3.org/1999/02/22-rdf-syntax-ns#" xmlns:svg="http://www.w3.org/2000/svg" xmlns="http://www.w3.org/2000/svg" xmlns:sodipodi="http://sodipodi.sourceforge.net/DTD/sodipodi-0.dtd" xmlns:inkscape="http://www.inkscape.org/namespaces/inkscape" version="1.1" id="svg2" xml:space="preserve" width="834.66669" height="362.66666" viewBox="0 0 834.66669 362.66666" xmlns:xlink="http://www.w3.org/1999/xlink">
 <metadata id="metadata8">
  <rdf:RDF>
   <cc:Work rdf:about="">
    <dc:format>
     image/svg+xml
    </dc:format>
    <dc:type rdf:resource="http://purl.org/dc/dcmitype/StillImage">
    </dc:type>
   </cc:Work>
  </rdf:RDF>
 </metadata>
 <defs id="defs6">
  <clipPath clipPathUnits="userSpaceOnUse" id="clipPath18">
   <path d="M 0,272 H 626 V 0 H 0 Z" id="path16">
   </path>
  </clipPath>
  <linearGradient x1="0" y1="0" x2="1" y2="0" gradientUnits="userSpaceOnUse" gradientTransform="matrix(69.46756,-50.237232,-50.237232,-69.46756,495.93692,193.59163)" spreadMethod="pad" id="linearGradient86">
   <stop style="stop-opacity:1;stop-color:#21dbaa" offset="0" id="stop74">
   </stop>
   <stop style="stop-opacity:1;stop-color:#00b4ef" offset="0.25376375" id="stop76">
   </stop>
   <stop style="stop-opacity:1;stop-color:#00b4ef" offset="0.309135" id="stop78">
   </stop>
   <stop style="stop-opacity:1;stop-color:#00b4ef" offset="0.37649091" id="stop80">
   </stop>
   <stop style="stop-opacity:1;stop-color:#0768dd" offset="0.645893" id="stop82">
   </stop>
   <stop style="stop-opacity:1;stop-color:#5f1ae5" offset="1" id="stop84">
   </stop>
  </linearGradient>
 </defs>
 <sodipodi:namedview pagecolor="#ffffff" bordercolor="#666666" borderopacity="1" objecttolerance="10" gridtolerance="10" guidetolerance="10" inkscape:pageopacity="0" inkscape:pageshadow="2" inkscape:window-width="640" inkscape:window-height="480" id="namedview4">
 </sodipodi:namedview>
 <g id="g10" inkscape:groupmode="layer" inkscape:label="QualtricsXM_RBG" transform="matrix(1.3333333,0,0,-1.3333333,0,362.66667)">
  <g id="g12">
   <g id="g14" clip-path="url(#clipPath18)">
    <g id="g20" transform="translate(216.0269,135.9634)">
     <path d="m 0,0 v -22.935 c -2.739,-4.444 -8.04,-8.891 -13.792,-8.891 -6.179,0 -10.018,4.039 -10.018,10.541 0,9.066 7.926,13.895 14.832,17.088 z m 14.828,-31.395 c -3.103,0 -3.71,2.28 -3.71,6.218 v 39.436 c 0,13.43 -7.565,21.448 -20.235,21.448 -15.133,0 -22.013,-11.665 -22.118,-23.227 l -0.005,-0.475 h 10.064 l -0.007,0.478 c -0.056,4.122 1.353,7.956 3.868,10.519 2.055,2.095 4.705,3.202 7.663,3.202 6.044,0 9.652,-4.74 9.652,-12.68 L 0,9.846 -12.153,4.079 c -13.777,-6.445 -22.808,-11.686 -22.808,-25.281 0,-11.935 7.511,-19.954 18.691,-19.954 6.338,0 12.386,3.134 17.12,8.849 1.61,-5.64 5.802,-8.849 11.628,-8.849 2.048,0 4.223,0.449 6.288,1.299 l 0.293,0.121 v 9.707 l -0.694,-0.379 c -1,-0.545 -2.195,-1.089 -3.537,-0.987" style="fill:#00030c;fill-opacity:1;fill-rule:nonzero;stroke:none" id="path22">
     </path>
    </g>
    <g id="g24" transform="translate(287.4976,193.4976)">
     <path d="m 0,0 h -11.118 l -0.389,-23.294 h -9.67 v -10.059 h 10.059 v -48.355 c 0,-10.854 5.07,-16.833 14.275,-16.833 3.616,0 7.181,1.015 10.897,3.102 l 0.24,0.136 v 10.032 l -0.766,-0.626 c -2.383,-1.95 -5.094,-3.024 -7.632,-3.024 -4.873,0 -5.896,4.057 -5.896,7.461 v 48.107 h 15.882 v 10.059 l -15.882,0 z" style="fill:#00030c;fill-opacity:1;fill-rule:nonzero;stroke:none" id="path26">
     </path>
    </g>
    <g id="g28" transform="translate(158.3208,113.7656)">
     <path d="m 0,0 c -4.193,-6.081 -9.011,-9.429 -13.579,-9.429 -5.992,0 -8.127,5.879 -8.127,11.38 V 56.438 H -32.823 V 1.612 c 0,-12.788 5.818,-20.122 15.964,-20.122 8.344,0 13.831,4.546 17.134,8.789 L 0.463,-17.15 H 11.118 V 56.438 L 0,56.438 Z" style="fill:#00030c;fill-opacity:1;fill-rule:nonzero;stroke:none" id="path30">
     </path>
    </g>
    <g id="g32" transform="translate(100.0859,153.1987)">
     <path d="m 0,0 v -40.392 c -3.063,-5.539 -6.782,-8.12 -11.695,-8.12 -9.099,0 -13.713,9.607 -13.713,28.556 0,18.215 5.19,28.662 14.238,28.662 5,0 9.377,-3.414 11.17,-8.706 m 1.288,10.3 c -2.778,5.154 -7.902,8.068 -14.332,8.068 -6.185,0 -11.874,-3.061 -16.019,-8.618 -5.072,-6.799 -7.643,-16.796 -7.643,-29.711 0,-28.261 11.411,-38.33 22.091,-38.33 6.041,0 11.283,2.488 14.615,6.878 v -41.17 H 11.118 V 17.005 H 1.593 Z" style="fill:#00030c;fill-opacity:1;fill-rule:nonzero;stroke:none" id="path34">
     </path>
    </g>
    <path d="m 244.086,96.086 h 11.118 v 108.529 h -11.118 z" style="fill:#00030c;fill-opacity:1;fill-rule:nonzero;stroke:none" id="path36">
    </path>
    <path d="m 355.792,96.615 h 11.117 v 73.588 h -11.117 z" style="fill:#00030c;fill-opacity:1;fill-rule:nonzero;stroke:none" id="path38">
    </path>
    <path d="m 355.792,180.792 h 11.117 v 12.706 h -11.117 z" style="fill:#00030c;fill-opacity:1;fill-rule:nonzero;stroke:none" id="path40">
    </path>
    <g id="g42" transform="translate(325.1611,161.4834)">
     <path d="m 0,0 -0.557,8.72 h -10.636 v -74.117 h 11.118 v 53.304 c 0,0 11.515,11.53 17.708,11.531 l 2.409,-0.21 v 11.081 h -2.79 C 9.411,9.989 5.106,7.538 0,0" style="fill:#00030c;fill-opacity:1;fill-rule:nonzero;stroke:none" id="path44">
     </path>
    </g>
    <g id="g46" transform="translate(456.7207,140.1025)">
     <path d="m 0,0 -0.282,-0.385 0.221,0.417 -0.004,0.003 c -6.927,3.575 -11.831,6.588 -11.831,12.822 0,5.399 3.823,9.027 9.512,9.027 3.045,0 5.611,-1.057 7.421,-3.058 C 7.254,16.376 8.285,12.57 7.866,8.385 L 7.814,7.866 h 10.221 l 0.022,0.449 c 0.333,6.938 -1.675,13.058 -5.655,17.233 -3.653,3.832 -8.729,5.858 -14.68,5.858 -11.912,0 -20.232,-7.887 -20.232,-19.18 0,-12.303 9.864,-17.581 17.063,-21.434 7.17,-3.893 13.942,-7.569 13.942,-15.245 0,-6.472 -4.708,-11.169 -11.194,-11.169 -7.064,0 -12.143,5.937 -12.35,14.438 l -0.011,0.461 h -10.298 l 0.011,-0.482 c 0.332,-14.937 9.011,-24.214 22.648,-24.214 13.044,0 21.806,8.637 21.806,21.491 C 19.107,-10.116 8.956,-4.742 0,0" style="fill:#00030c;fill-opacity:1;fill-rule:nonzero;stroke:none" id="path48">
     </path>
    </g>
    <g id="g50" transform="translate(413.6855,119.3799)">
     <path d="m 0,0 c -0.223,-5.236 -1.648,-9.555 -4.075,-12.085 -1.729,-1.802 -3.919,-2.715 -6.51,-2.715 -8.436,0 -12.894,9.829 -12.894,28.425 0,18.507 4.617,28.699 12.999,28.699 2.412,0 4.455,-0.848 6.073,-2.522 2.269,-2.347 3.632,-6.35 3.875,-11.214 H 9.842 C 9.72,36.286 7.649,42.452 3.759,46.503 c -3.431,3.574 -8.081,5.385 -13.822,5.385 -15.719,0 -24.376,-13.552 -24.376,-38.159 0,-24.606 8.397,-38.157 23.646,-38.157 12.277,0 19.96,9.069 20.929,24.428 z" style="fill:#00030c;fill-opacity:1;fill-rule:nonzero;stroke:none" id="path52">
     </path>
    </g>
    <g id="g54" transform="translate(489.6699,102.6543)">
     <path d="m 0,0 c -0.255,-0.144 -0.634,-0.216 -1.129,-0.216 h -1.455 v 2.118 h 1.455 C -0.634,1.902 -0.255,1.814 0,1.643 0.259,1.472 0.387,1.185 0.387,0.785 0.387,0.402 0.259,0.144 0,0 m 1.693,-0.453 c 0.229,0.411 0.343,0.887 0.343,1.431 0,0.784 -0.235,1.397 -0.708,1.842 -0.475,0.446 -1.165,0.67 -2.074,0.67 h -3.956 v -7.941 h 2.118 v 2.647 h 1.617 l 1.441,-2.647 h 1.837 l -1.695,3.084 c 0.491,0.198 0.853,0.503 1.077,0.914" style="fill:#00030c;fill-opacity:1;fill-rule:nonzero;stroke:none" id="path56">
     </path>
    </g>
    <g id="g58" transform="translate(493.3779,99.8682)">
     <path d="m 0,0 c -0.287,-0.695 -0.68,-1.296 -1.179,-1.802 -0.494,-0.506 -1.08,-0.895 -1.756,-1.163 -0.68,-0.272 -1.397,-0.408 -2.153,-0.408 -0.778,0 -1.504,0.136 -2.18,0.408 -0.679,0.268 -1.265,0.657 -1.759,1.163 -0.499,0.506 -0.892,1.107 -1.179,1.802 -0.291,0.691 -0.435,1.466 -0.435,2.312 0,0.831 0.144,1.594 0.435,2.289 0.287,0.695 0.68,1.295 1.179,1.801 0.494,0.507 1.08,0.892 1.759,1.164 0.676,0.272 1.402,0.408 2.18,0.408 0.756,0 1.473,-0.136 2.153,-0.408 C -2.259,7.294 -1.673,6.909 -1.179,6.402 -0.68,5.896 -0.287,5.296 0,4.601 0.291,3.906 0.435,3.143 0.435,2.312 0.435,1.466 0.291,0.691 0,0 M 1.356,5.171 C 0.994,6.028 0.499,6.762 -0.136,7.377 -0.767,7.989 -1.511,8.469 -2.368,8.813 -3.226,9.152 -4.151,9.326 -5.145,9.326 -6.138,9.326 -7.06,9.152 -7.917,8.813 -8.774,8.469 -9.522,7.989 -10.153,7.377 c -0.631,-0.615 -1.126,-1.349 -1.489,-2.206 -0.362,-0.858 -0.54,-1.809 -0.54,-2.859 0,-1.046 0.178,-2.002 0.54,-2.868 0.363,-0.868 0.858,-1.612 1.489,-2.236 0.631,-0.623 1.379,-1.106 2.236,-1.446 0.857,-0.344 1.779,-0.514 2.772,-0.514 0.994,0 1.919,0.17 2.777,0.514 0.857,0.34 1.601,0.823 2.232,1.446 0.635,0.624 1.13,1.368 1.492,2.236 0.359,0.866 0.54,1.822 0.54,2.868 0,1.05 -0.181,2.001 -0.54,2.859" style="fill:#00030c;fill-opacity:1;fill-rule:nonzero;stroke:none" id="path60">
     </path>
    </g>
   </g>
  </g>
  <g id="g62">
   <g id="g64">
    <g id="g70">
     <g id="g72">
      <path d="m 555.969,194.027 -9.572,-33.883 h -0.121 l -10.272,33.883 H 524 h -1.107 -9.345 l -7.778,-13.824 -8.233,13.824 h -11.545 l 13.429,-21.723 -14.736,-24.336 h 10.935 l 9.399,16.019 9.732,-16.019 h 8.297 2.886 6.152 v 31.765 h 0.12 c 0.242,-1.33 0.47,-2.468 0.68,-3.415 v 0 c 0.213,-0.948 0.419,-1.824 0.62,-2.63 v 0 c 0.201,-0.806 0.419,-1.571 0.65,-2.297 v 0 c 0.232,-0.726 0.468,-1.521 0.71,-2.387 v 0 l 6.801,-21.036 h 9.156 l 6.717,21.025 c 0.493,1.692 0.951,3.323 1.376,4.893 v 0 c 0.424,1.572 0.795,3.344 1.109,5.317 v 0 h 0.12 v -31.235 h 9.529 v 46.059 z m -45.371,-21.701 11.958,19.847 v -39.307 z" style="fill:url(#linearGradient86);stroke:none" id="path88">
      </path>
     </g>
    </g>
   </g>
  </g>
 </g>
</svg>