<svg version="1.1" id="Layer_1" xmlns:x="ns_extend;" xmlns:i="ns_ai;" xmlns:graph="ns_graphs;" xmlns="http://www.w3.org/2000/svg" xmlns:xlink="http://www.w3.org/1999/xlink" x="0px" y="0px" viewBox="0 0 511.6 96.9" style="enable-background:new 0 0 511.6 96.9;" xml:space="preserve">
 <style type="text/css">
  .st0{fill:#0052D9;}
 </style>
 <metadata>
  <sfw xmlns="ns_sfw;">
   <slices>
   </slices>
   <sliceSourceBounds bottomLeftOrigin="true" height="96.9" width="511.6" x="-422" y="-212.8">
   </sliceSourceBounds>
  </sfw>
 </metadata>
 <g>
  <polygon class="st0" points="470.1,30.1 448.2,30.1 456.8,42.5 467.9,42.5 458.6,95.5 478,95.5 487.3,42.5 511.6,42.5 473.3,11.7 	
		">
  </polygon>
  <polygon class="st0" points="90.6,0 2.4,0 0,13.9 34.3,13.9 19.9,95.5 39.3,95.5 53.7,13.9 88.2,13.9 	">
  </polygon>
  <path class="st0" d="M115,55.9H81.3c2-6.7,8.6-15.9,20.5-15.9C114.8,39.9,116.2,49.8,115,55.9 M105,28.7
		c-24.7,0-40.5,15.5-43.6,33.6c-3.5,20,8.8,34.7,33.7,34.7c11.1,0,21.5-2.1,30-6.8l2.6-14.9c-8.3,5.9-18.8,9.2-27.7,9.2
		c-12.4,0-22.3-5.2-20.7-17h51.3c0.6-1.4,1.4-3.9,1.9-6.9C135,46.1,129.9,28.7,105,28.7">
  </path>
  <path class="st0" d="M190.7,28.7c-12.1,0-21.2,5-25.5,10.1h-0.5l-17.1-10.1c-0.6,5.7-1.5,13.4-2.8,20.9l-8,45.9h19.4l6.7-38.5
		c0.3-1.9,1-3.9,1.8-5.2c2.9-5.1,9-9.7,16.7-9.7c10.6,0,13.5,7.2,11.9,16.5L187,95.5h19.4l6.8-38.8C216.8,36,204.1,28.7,190.7,28.7">
  </path>
  <path class="st0" d="M423.6,28.7c-12.1,0-21.2,5-25.5,10.1h-0.5l-17.1-10.1c-0.6,5.7-1.5,13.4-2.8,20.9l-8,45.9h19.4L396,57
		c0.3-1.9,1-3.9,1.8-5.2c2.9-5.1,9-9.7,16.7-9.7c10.6,0,13.5,7.2,11.9,16.5l-6.5,36.9h19.4l6.8-38.8C449.7,36,437,28.7,423.6,28.7">
  </path>
  <path class="st0" d="M348,55.9h-33.8c2-6.7,8.6-15.9,20.5-15.9C347.7,39.9,349.1,49.8,348,55.9 M337.9,28.7
		c-24.7,0-40.5,15.5-43.6,33.6c-3.5,20,8.8,34.7,33.7,34.7c11.1,0,21.5-2.1,30-6.8l2.6-14.9c-8.3,5.9-18.8,9.2-27.7,9.2
		c-12.4,0-22.3-5.2-20.7-17h51.3c0.6-1.4,1.4-3.9,1.9-6.9C367.9,46.1,362.8,28.7,337.9,28.7">
  </path>
  <path class="st0" d="M221.4,61.9c-3.5,20.3,10.7,35,34.7,35c9.6,0,21-2.7,25.3-4.4l3.1-17.5c-6.7,7.3-15.9,8.8-22.4,8.8
		c-13.2,0-23.2-7.7-20.9-21.1c2-12,13.4-21.2,28.2-21.2c6,0,14.2,2,19.4,8.8l3-17.8c-4.2-1.6-10.9-3.9-20.8-3.9
		C244.1,28.7,224.8,42.4,221.4,61.9">
  </path>
 </g>
</svg>