<?xml version="1.0" encoding="UTF-8"?>
<!DOCTYPE svg PUBLIC "-//W3C//DTD SVG 1.1//EN" "http://www.w3.org/Graphics/SVG/1.1/DTD/svg11.dtd">
<svg xmlns="http://www.w3.org/2000/svg" version="1.1" width="1080px" height="366px" style="shape-rendering:geometricPrecision; text-rendering:geometricPrecision; image-rendering:optimizeQuality; fill-rule:evenodd; clip-rule:evenodd" xmlns:xlink="http://www.w3.org/1999/xlink">
<g><path style="opacity:1" fill="#1245de" d="M 247.5,300.5 C 249.099,300.232 250.432,300.566 251.5,301.5C 230.401,314.195 207.401,320.528 182.5,320.5C 128.611,318.655 88.1113,294.655 61,248.5C 36.7583,198.617 39.4249,150.283 69,103.5C 73.9918,96.6784 79.4918,90.3451 85.5,84.5C 87.7488,83.9202 89.4154,82.5869 90.5,80.5C 110.343,61.5806 134.01,50.0806 161.5,46C 229.144,39.5625 278.31,66.3958 309,126.5C 321.065,154.955 323.732,184.288 317,214.5C 311.261,230.236 300.095,239.402 283.5,242C 268.225,244.09 253.558,242.09 239.5,236C 224.805,223.137 213.638,207.637 206,189.5C 205.316,188.216 205.483,187.049 206.5,186C 222.515,175.66 238.182,164.827 253.5,153.5C 254.799,145.926 252.132,140.093 245.5,136C 235.391,130.419 224.724,129.086 213.5,132C 203.495,134.669 193.495,137.335 183.5,140C 174.897,141.464 167.23,139.464 160.5,134C 153.462,127.293 146.128,120.96 138.5,115C 132.369,110.775 126.035,110.442 119.5,114C 109.017,119.225 99.6838,125.891 91.5,134C 111.867,169.899 132.367,205.732 153,241.5C 163.315,257.82 175.815,272.32 190.5,285C 207.259,298.108 226.259,303.275 247.5,300.5 Z M 111.5,200.5 C 111.932,201.71 112.599,202.71 113.5,203.5C 117.488,210.806 121.488,218.14 125.5,225.5C 113.842,231.329 102.176,237.162 90.5,243C 86.835,243.387 84.0016,241.887 82,238.5C 80.5076,233.589 80.1743,228.589 81,223.5C 87.1802,211.803 92.8469,199.803 98,187.5C 99.4659,185.675 101.299,185.175 103.5,186C 106.56,190.619 109.226,195.453 111.5,200.5 Z"/></g>
<g><path style="opacity:1" fill="#fdad31" d="M 818.5,108.5 C 850.912,104.239 877.412,114.572 898,139.5C 916.134,169.87 917.134,200.87 901,232.5C 881.722,259.879 855.222,271.712 821.5,268C 785.994,262.494 763.828,242.328 755,207.5C 748.72,176.357 756.554,149.524 778.5,127C 790.263,117.283 803.596,111.116 818.5,108.5 Z M 824.5,127.5 C 861.1,125.956 883.266,142.956 891,178.5C 894.481,208.042 883.314,229.875 857.5,244C 832.42,253.549 809.92,249.382 790,231.5C 773.875,211.418 769.875,189.084 778,164.5C 786.829,143.681 802.329,131.348 824.5,127.5 Z"/></g>
<g><path style="opacity:1" fill="#1245de" d="M 426.5,128.5 C 426.5,139.167 426.5,149.833 426.5,160.5C 441.5,160.5 456.5,160.5 471.5,160.5C 475.153,161.786 476.82,164.453 476.5,168.5C 476.82,172.547 475.153,175.214 471.5,176.5C 456.5,176.5 441.5,176.5 426.5,176.5C 426.17,195.008 426.503,213.341 427.5,231.5C 429.144,239.144 433.81,243.81 441.5,245.5C 441.918,246.222 442.584,246.722 443.5,247C 448.684,247.816 453.684,247.65 458.5,246.5C 463.373,246.12 468.206,245.453 473,244.5C 480.494,248.061 482.494,253.728 479,261.5C 475.664,264.169 471.831,265.669 467.5,266C 452.731,267.838 438.398,266.171 424.5,261C 417.019,255.553 411.853,248.387 409,239.5C 407.371,202.2 407.038,164.867 408,127.5C 413.079,119.1 419.079,118.433 426,125.5C 426.483,126.448 426.649,127.448 426.5,128.5 Z"/></g>
<g><path style="opacity:1" fill="#1245de" d="M 549.5,156.5 C 585.61,157.278 605.276,175.612 608.5,211.5C 604.373,250.453 582.706,268.62 543.5,266C 519.115,261.282 504.282,246.782 499,222.5C 495.486,184.552 512.32,162.552 549.5,156.5 Z M 555.5,175.5 C 558.345,176.344 561.345,177.01 564.5,177.5C 585.339,186.517 592.839,202.183 587,224.5C 578.946,242.283 565.112,249.783 545.5,247C 523.873,240.612 514.706,226.112 518,203.5C 523.461,184.843 535.961,175.51 555.5,175.5 Z"/></g>
<g><path style="opacity:1" fill="#1245de" d="M 647.5,250.5 C 647.44,249.957 647.107,249.624 646.5,249.5C 645.5,267.821 645.167,286.155 645.5,304.5C 644.318,309.767 640.985,312.101 635.5,311.5C 630.946,311.793 627.78,309.793 626,305.5C 625.333,270.833 625.333,236.167 626,201.5C 633.104,173.593 651.104,158.593 680,156.5C 713.835,159.669 732.335,178.169 735.5,212C 732.269,249.574 711.936,267.574 674.5,266C 663.617,263.898 654.617,258.732 647.5,250.5 Z M 690.5,246.5 C 684.87,247.292 679.203,247.625 673.5,247.5C 651.74,241.019 642.24,226.352 645,203.5C 652.903,180.462 668.737,171.962 692.5,178C 711.106,186.077 718.606,200.244 715,220.5C 711.113,233.219 702.947,241.886 690.5,246.5 Z"/></g>
<g><path style="opacity:1" fill="#fdad31" d="M 984.5,156.5 C 1012.96,157.133 1029.46,171.466 1034,199.5C 1034.67,219.5 1034.67,239.5 1034,259.5C 1030.66,266.248 1025.49,268.081 1018.5,265C 1017.33,263.833 1016.17,262.667 1015,261.5C 1013.98,239.188 1012.98,216.855 1012,194.5C 1006.62,181.807 996.951,175.474 983,175.5C 970.37,175.636 961.37,181.303 956,192.5C 954.698,214.77 954.032,237.103 954,259.5C 951.489,265.657 946.989,267.824 940.5,266C 937.244,264.413 935.077,261.913 934,258.5C 933.333,227.5 933.333,196.5 934,165.5C 939.122,156.454 945.455,155.454 953,162.5C 954.044,164.715 954.71,167.048 955,169.5C 963.409,161.707 973.242,157.374 984.5,156.5 Z"/></g>
</svg>
