<?xml version="1.0" encoding="UTF-8"?>
<!DOCTYPE svg PUBLIC "-//W3C//DTD SVG 1.1//EN" "http://www.w3.org/Graphics/SVG/1.1/DTD/svg11.dtd">
<svg xmlns="http://www.w3.org/2000/svg" version="1.1" width="361px" height="400px" style="shape-rendering:geometricPrecision; text-rendering:geometricPrecision; image-rendering:optimizeQuality; fill-rule:evenodd; clip-rule:evenodd" xmlns:xlink="http://www.w3.org/1999/xlink">
<g><path style="opacity:0.98" fill="#1e80f0" d="M 304.5,30.5 C 309.737,30.9902 310.903,33.6569 308,38.5C 292,59.1667 276,79.8333 260,100.5C 260.139,105.609 261.139,110.609 263,115.5C 265.235,127.13 261.735,136.63 252.5,144C 234.23,157.968 213.896,167.968 191.5,174C 168.759,181.63 145.426,184.963 121.5,184C 133.831,180.261 143.998,173.427 152,163.5C 154.837,158.828 156.837,153.828 158,148.5C 159.952,95.941 186.786,74.441 238.5,84C 260.399,65.9237 282.399,48.0903 304.5,30.5 Z"/></g>
<g><path style="opacity:0.969" fill="#1e80f0" d="M 245.5,160.5 C 246.376,160.369 247.043,160.702 247.5,161.5C 213.075,204.73 168.408,231.063 113.5,240.5C 84.2591,226.028 53.9258,214.194 22.5,205C 51.5072,203.623 80.5072,201.956 109.5,200C 148.228,197.189 185.561,188.522 221.5,174C 230.048,170.232 238.048,165.732 245.5,160.5 Z"/></g>
<g><path style="opacity:0.97" fill="#1e80f0" d="M 258.5,160.5 C 253.818,213.61 226.152,249.11 175.5,267C 138.462,278.138 103.796,273.138 71.5,252C 148.564,250.749 210.897,220.249 258.5,160.5 Z"/></g>
<g><path style="opacity:0.972" fill="#1e80f0" d="M 259.5,196.5 C 253.218,248.835 233.052,295.168 199,335.5C 187.173,348.002 174.173,359.002 160,368.5C 163.082,357.764 165.415,346.764 167,335.5C 169.453,315.317 165.287,296.65 154.5,279.5C 204.59,270.655 239.59,242.988 259.5,196.5 Z"/></g>
</svg>
