<svg version="1.1" id="Layer_1" xmlns:x="ns_extend;" xmlns:i="ns_ai;" xmlns:graph="ns_graphs;" xmlns="http://www.w3.org/2000/svg" xmlns:xlink="http://www.w3.org/1999/xlink" x="0px" y="0px" viewBox="0 0 274.55 72" style="enable-background:new 0 0 274.55 72;" xml:space="preserve">
 <style type="text/css">
  .st0{fill-rule:evenodd;clip-rule:evenodd;fill:#415FFF;}
 </style>
 <metadata>
  <sfw xmlns="ns_sfw;">
   <slices>
   </slices>
   <sliceSourceBounds bottomLeftOrigin="true" height="72" width="274.55" x="-22.94" y="-213.65">
   </sliceSourceBounds>
  </sfw>
 </metadata>
 <g id="海外一期">
  <g id="F14-PC-返回顶部Normal" transform="translate(-241.000000, -29.000000)">
   <g id="编组-6">
    <g id="vivo" transform="translate(240.000000, 29.000000)">
     <g id="vivo-LOGO" transform="translate(1.000000, 0.000000)">
      <path id="Fill-1" class="st0" d="M247.86,60.04h-23.59c-13.26,0-14.44-10.87-14.44-14.2c0-3.32,1.18-14.2,14.44-14.2h23.59
						c13.26,0,14.44,10.87,14.44,14.2C262.29,49.17,261.12,60.04,247.86,60.04 M247.86,19.69h-23.59
						c-24.51,0-26.69,20.03-26.69,26.16c0,6.12,2.18,26.16,26.69,26.16h23.59c24.51,0,26.7-20.03,26.7-26.16
						C274.55,39.72,272.37,19.69,247.86,19.69">
      </path>
      <path id="Fill-4" class="st0" d="M192.84,20.91h-7.65c-3.27,0-3.95,0.56-5.21,2.43c-1.26,1.87-23.13,35.26-23.13,35.26
						c-0.7,1.03-1.44,1.44-2.36,1.44c-0.92,0-1.66-0.42-2.36-1.44c0,0-21.87-33.39-23.13-35.26c-1.26-1.87-1.94-2.43-5.21-2.43
						h-7.65c-1.76,0-2.56,1.38-1.46,3.06c1.11,1.68,26.12,39.66,26.12,39.66c4.05,5.96,7.03,8.37,13.69,8.37s9.63-2.41,13.69-8.37
						c0,0,25.01-37.98,26.12-39.66C195.4,22.29,194.6,20.91,192.84,20.91">
      </path>
      <path id="Fill-7" class="st0" d="M91.3,24.15c0-2.32,0.92-3.24,3.24-3.24h5.78c2.32,0,3.24,0.92,3.24,3.24v44.61
						c0,2.32-0.92,3.24-3.24,3.24h-5.78c-2.32,0-3.24-0.92-3.24-3.24V24.15z">
      </path>
      <path id="Fill-13" class="st0" d="M78.7,20.91h-7.65c-3.27,0-3.95,0.56-5.21,2.43c-1.26,1.87-23.13,35.26-23.13,35.26
						c-0.7,1.03-1.44,1.44-2.36,1.44s-1.66-0.42-2.36-1.44c0,0-21.87-33.39-23.13-35.26c-1.26-1.87-1.94-2.43-5.21-2.43H2.01
						c-1.96,0-2.56,1.38-1.46,3.06c1.11,1.68,26.12,39.66,26.12,39.66C30.72,69.59,33.7,72,40.36,72c6.66,0,9.63-2.41,13.69-8.37
						c0,0,25.01-37.98,26.12-39.66C81.27,22.29,80.67,20.91,78.7,20.91">
      </path>
      <path id="Fill-10" class="st0" d="M90.77,10.7c-1.88-1.88-1.88-3.38,0-5.26l4.03-4.03c1.88-1.88,3.38-1.88,5.26,0l4.03,4.03
						c1.88,1.88,1.88,3.38,0,5.26l-4.03,4.03c-1.88,1.88-3.38,1.88-5.26,0L90.77,10.7z">
      </path>
     </g>
    </g>
   </g>
  </g>
 </g>
</svg>