<svg version="1.1" id="Layer_1" xmlns="http://www.w3.org/2000/svg" xmlns:xlink="http://www.w3.org/1999/xlink" x="0px" y="0px" viewBox="0 0 110 90" style="enable-background:new 0 0 110 90;" xml:space="preserve">
 <style type="text/css">
  .st0{fill:#FFFFFF;}
	.st1{fill:url(#XMLID_2_);}
	.st2{fill:url(#XMLID_3_);}
	.st3{fill:#919191;}
	.st4{fill:#168743;}
 </style>
 <g>
  <g>
   <path id="XMLID_436_" class="st0" d="M0,33.7c0,10.1,5.4,19.3,13.8,25.5c0.7,0.5,1.1,1.3,1.1,2.2c0,0.3-0.1,0.6-0.1,0.9
			c-0.7,2.5-1.7,6.6-1.8,6.8c-0.1,0.3-0.2,0.7-0.2,1c0,0.7,0.6,1.3,1.3,1.3c0.3,0,0.5-0.1,0.8-0.3l8.7-5.1c0.7-0.4,1.4-0.6,2.1-0.6
			c0.4,0,0.8,0.1,1.2,0.2c4.1,1.2,8.5,1.8,13,1.8c22,0,39.8-15.1,39.8-33.7C79.7,15.1,61.8,0,39.8,0C17.8,0,0,15.1,0,33.7">
   </path>
   <linearGradient id="XMLID_2_" gradientUnits="userSpaceOnUse" x1="39.8391" y1="71.2971" x2="39.8391" y2="0">
    <stop offset="6.019631e-02" style="stop-color:#05CD66">
    </stop>
    <stop offset="0.2202" style="stop-color:#0ED169">
    </stop>
    <stop offset="0.4805" style="stop-color:#26DB6F">
    </stop>
    <stop offset="0.8069" style="stop-color:#4DEB7A">
    </stop>
    <stop offset="0.9517" style="stop-color:#61F380">
    </stop>
   </linearGradient>
   <path id="XMLID_435_" class="st1" d="M0,33.7c0,10.1,5.4,19.3,13.8,25.5c0.7,0.5,1.1,1.3,1.1,2.2c0,0.3-0.1,0.6-0.1,0.9
			c-0.7,2.5-1.7,6.6-1.8,6.8c-0.1,0.3-0.2,0.7-0.2,1c0,0.7,0.6,1.3,1.3,1.3c0.3,0,0.5-0.1,0.8-0.3l8.7-5.1c0.7-0.4,1.4-0.6,2.1-0.6
			c0.4,0,0.8,0.1,1.2,0.2c4.1,1.2,8.5,1.8,13,1.8c22,0,39.8-15.1,39.8-33.7C79.7,15.1,61.8,0,39.8,0C17.8,0,0,15.1,0,33.7">
   </path>
   <linearGradient id="XMLID_3_" gradientUnits="userSpaceOnUse" x1="76.8231" y1="90" x2="76.8231" y2="30.6298">
    <stop offset="8.099416e-02" style="stop-color:#D9D9D9">
    </stop>
    <stop offset="1" style="stop-color:#F0F0F0">
    </stop>
   </linearGradient>
   <path id="XMLID_434_" class="st2" d="M43.6,58.7c0,15.5,14.9,28,33.2,28c3.8,0,7.4-0.5,10.8-1.5c0.3-0.1,0.6-0.1,1-0.1
			c0.6,0,1.2,0.2,1.8,0.5l7.3,4.3c0.2,0.1,0.4,0.2,0.6,0.2c0.6,0,1.1-0.5,1.1-1.1c0-0.3-0.1-0.6-0.2-0.8c0-0.2-0.9-3.5-1.5-5.7
			c-0.1-0.2-0.1-0.5-0.1-0.7c0-0.8,0.4-1.4,0.9-1.8c7-5.1,11.5-12.7,11.5-21.2c0-15.5-14.9-28-33.2-28
			C58.5,30.6,43.6,43.2,43.6,58.7">
   </path>
   <g>
    <path id="XMLID_433_" class="st3" d="M83.8,50.1c0,2.5,2,4.5,4.4,4.5c2.5,0,4.4-2,4.4-4.5c0-2.5-2-4.5-4.4-4.5
				C85.8,45.6,83.8,47.6,83.8,50.1">
    </path>
    <path id="XMLID_432_" class="st3" d="M61.6,50.1c0,2.5,2,4.5,4.4,4.5c2.5,0,4.4-2,4.4-4.5c0-2.5-2-4.5-4.4-4.5
				C63.6,45.6,61.6,47.6,61.6,50.1">
    </path>
   </g>
   <g>
    <path id="XMLID_431_" class="st4" d="M31.8,22.8c0,3-2.4,5.4-5.3,5.4c-2.9,0-5.3-2.4-5.3-5.4c0-3,2.4-5.4,5.3-5.4
				C29.5,17.4,31.8,19.9,31.8,22.8">
    </path>
    <path id="XMLID_421_" class="st4" d="M58.5,22.8c0,3-2.4,5.4-5.3,5.4c-2.9,0-5.3-2.4-5.3-5.4c0-3,2.4-5.4,5.3-5.4
				C56.1,17.4,58.5,19.9,58.5,22.8">
    </path>
   </g>
  </g>
 </g>
</svg>